<svg width="32" height="46" viewBox="0 0 32 46" fill="none" xmlns="http://www.w3.org/2000/svg">
<path d="M31.28 30.3774C31.28 33.4672 30.3627 36.4877 28.6442 39.0568C26.9256 41.626 24.483 43.6283 21.6252 44.8108C18.7673 45.9932 15.6227 46.3026 12.5888 45.6998C9.55493 45.097 6.76815 43.6091 4.58086 41.4242C2.39356 39.2394 0.903998 36.4557 0.300525 33.4252C-0.302948 30.3947 0.00677659 27.2535 1.19053 24.3988C2.37429 21.5442 4.3789 19.1042 6.95089 17.3876C9.52287 15.671 12.5467 14.7547 15.64 14.7547V30.3774H31.28Z" fill="white"/>
<path d="M15.64 0V14.7547L31.28 30.3774V15.6226L15.64 0Z" fill="white"/>
</svg>
